<?xml version="1.0" encoding="UTF-8" standalone="no"?>
<!-- Created with Inkscape (http://www.inkscape.org/) -->

<svg
   xmlns:dc="http://purl.org/dc/elements/1.1/"
   xmlns:cc="http://creativecommons.org/ns#"
   xmlns:rdf="http://www.w3.org/1999/02/22-rdf-syntax-ns#"
   xmlns:svg="http://www.w3.org/2000/svg"
   xmlns="http://www.w3.org/2000/svg"
   xmlns:xlink="http://www.w3.org/1999/xlink"
   xmlns:sodipodi="http://sodipodi.sourceforge.net/DTD/sodipodi-0.dtd"
   xmlns:inkscape="http://www.inkscape.org/namespaces/inkscape"
   width="302.11041"
   height="296.48999"
   id="svg2"
   version="1.1"
   inkscape:version="0.48.4 r9939"
   sodipodi:docname="logo.svg">
  <defs
     id="defs4">
    <linearGradient
       inkscape:collect="always"
       id="linearGradient4071">
      <stop
         style="stop-color:#ffffff;stop-opacity:1"
         offset="0"
         id="stop4073" />
      <stop
         style="stop-color:#009acd;stop-opacity:1"
         offset="1"
         id="stop4075" />
    </linearGradient>
    <clipPath
       clipPathUnits="userSpaceOnUse"
       id="clipPath3030">
      <path
         style="fill:none;stroke:#000000;stroke-width:1px;stroke-linecap:butt;stroke-linejoin:miter;stroke-opacity:1"
         d="m 92.142857,297.36218 c 2.448941,-0.8415 4.654744,-0.71428 7.142857,-0.71428 0.952386,0 1.912116,0.11812 2.857146,0 0.97411,-0.12177 1.88881,-0.5529 2.85714,-0.71429 0.93942,-0.15657 1.9332,0.23099 2.85714,0 0.5165,-0.12912 0.91207,-0.58516 1.42857,-0.71429 0.46198,-0.11549 0.95239,0 1.42858,0 1.42857,0 2.85714,0 4.28571,0 0.47619,0 0.96163,0.0934 1.42857,0 0.7383,-0.14766 1.40018,-0.5905 2.14286,-0.71428 0.70457,-0.11743 1.42857,0 2.14286,0 0.95238,0 1.90476,0 2.85714,0 2.14286,0 4.28571,0 6.42857,0 2.14286,0 4.28571,0 6.42857,0 0.47619,0 0.95238,0 1.42857,0 0.2381,0 0.51618,-0.13207 0.71429,0 0.56033,0.37355 0.8033,1.17846 1.42857,1.42857 0.80576,0.90351 1.95364,-0.30117 2.85714,0 0.50508,0.16836 0.90652,0.60987 1.42857,0.71429 1.63431,0.32686 3.35009,-0.23571 5,0 0.74536,0.10648 1.40456,0.56662 2.14286,0.71428 0.46694,0.0934 0.96163,-0.0934 1.42857,0 3.92233,0.78447 0.62969,0.84022 3.57143,1.42857 0.70042,0.14009 1.43829,-0.11742 2.14286,0 6.27012,1.04502 -1.09186,0.26275 3.57143,1.42857 0.46197,0.1155 0.9666,-0.11549 1.42857,0 0.5165,0.12913 0.90651,0.60988 1.42857,0.71429 0.70041,0.14008 1.44244,-0.14008 2.14286,0 1.05837,0.21167 3.16731,1.86326 4.28571,2.14286 0.46197,0.11549 0.97682,-0.15059 1.42857,0 0.31944,0.10648 0.39485,0.6078 0.71429,0.71428 0.45175,0.15059 0.9666,-0.11549 1.42857,0 0.5165,0.12913 0.91207,0.58516 1.42857,0.71429 0.46197,0.11549 0.97682,-0.15059 1.42857,0 0.31944,0.10648 0.41312,0.5637 0.71429,0.71428 0.21296,0.10648 0.48841,-0.0753 0.71428,0 0.50508,0.16836 0.9235,0.54593 1.42858,0.71429 0.22587,0.0753 0.51617,-0.13207 0.71428,0 0.56033,0.37355 0.95238,0.95238 1.42857,1.42857 0.2381,0.2381 0.41312,0.5637 0.71429,0.71429 0.21296,0.10648 0.47619,0 0.71428,0 0.71429,0 1.4499,-0.17324 2.14286,0 0.65333,0.16333 0.82623,1.1274 1.42857,1.42857 0.42592,0.21296 1.00266,-0.21296 1.42857,0 1.14343,0.57171 0.28515,0.85686 1.42858,1.42857 0.42591,0.21296 1.09185,-0.33672 1.42857,0 0.33671,0.33672 -0.33672,1.09185 0,1.42857 0.16836,0.16836 0.54592,-0.16836 0.71428,0 0.16836,0.16836 -0.16836,0.54593 0,0.71429 0.33672,0.33672 1.09186,-0.33672 1.42857,0 0.25659,0.25658 -0.23105,2.39503 0,2.85714 0.10648,0.21296 0.50133,-0.10648 0.71429,0 0.30117,0.15059 0.5637,0.41312 0.71429,0.71429 0.21295,0.42591 -0.21296,1.00265 0,1.42857 0.30117,0.60234 1.1274,0.82623 1.42857,1.42857 0.21296,0.42592 -0.21296,1.00265 0,1.42857 0.15058,0.30117 0.5637,0.41312 0.71428,0.71429 0.10648,0.21295 -0.16836,0.54592 0,0.71428 0.16836,0.16836 0.54593,-0.16836 0.71429,0 0.33672,0.33672 -0.21296,1.00266 0,1.42857 0.15058,0.30117 0.5637,0.41312 0.71428,0.71429 0.21296,0.42592 -0.33671,1.09185 0,1.42857 0.16836,0.16836 0.54593,-0.16836 0.71429,0 0.16836,0.16836 -0.10648,0.50133 0,0.71429 0.15058,0.30117 0.5637,0.41311 0.71429,0.71428 0.21295,0.42592 -0.21296,1.00266 0,1.42857 0.15058,0.30117 0.5637,0.41312 0.71428,0.71429 0.10648,0.21296 -0.10648,0.50133 0,0.71428 0.15059,0.30117 0.5637,0.41312 0.71429,0.71429 0.10648,0.21296 -0.10648,0.50133 0,0.71429 0.15058,0.30117 0.5637,0.41311 0.71428,0.71428 0.10648,0.21296 -0.10648,0.50133 0,0.71429 0.15059,0.30117 0.5637,0.41311 0.71429,0.71428 0.10648,0.21296 -0.16836,0.54593 0,0.71429 0.16836,0.16836 0.54593,-0.16836 0.71428,0 0.33672,0.33672 -0.21295,1.00265 0,1.42857 0.15059,0.30117 0.47619,0.47619 0.71429,0.71429 0.2381,0 0.60781,-0.21296 0.71429,0 0.21295,0.42591 -0.15059,0.97681 0,1.42857 0.21295,0.63887 1.1274,0.82623 1.42857,1.42857 0.10648,0.21296 -0.16836,0.54593 0,0.71428 1.47788,1.47789 -0.0578,-2.2584 1.42857,0.71429 0.10648,0.21296 -0.10648,0.50133 0,0.71429 0.15058,0.30117 0.5637,0.41311 0.71428,0.71428 0.14161,0.28321 -0.14602,1.99683 0,2.14286 0.16836,0.16836 0.54593,-0.16836 0.71429,0 0.16836,0.16836 -0.10648,0.50133 0,0.71428 0.15058,0.30117 0.5637,0.41312 0.71429,0.71429 0.21295,0.42592 -0.33672,1.09185 0,1.42857 0.16835,0.16836 0.54592,-0.16836 0.71428,0 0.16836,0.16836 -0.10648,0.50133 0,0.71429 0.15059,0.30117 0.52751,0.43412 0.71429,0.71428 0.29532,0.44298 0.33782,1.05211 0.71428,1.42857 0.16836,0.16836 0.54593,-0.16835 0.71429,0 0.16836,0.16836 -0.10648,0.50133 0,0.71429 0.15058,0.30117 0.5637,0.41312 0.71428,0.71429 0.10648,0.21296 -0.16835,0.54592 0,0.71428 0.16836,0.16836 0.54593,-0.16836 0.71429,0 0.16836,0.16836 -0.10648,0.50133 0,0.71429 0.15058,0.30117 0.5637,0.41311 0.71429,0.71428 0.10648,0.21296 -0.16836,0.54593 0,0.71429 0.16835,0.16836 0.6078,-0.21296 0.71428,0 0.21296,0.42592 -0.26414,1.03236 0,1.42857 0.0443,2.01124 1.61046,0.18189 2.14286,0.71429 0.16836,0.16835 -0.10648,0.50132 0,0.71428 0.15058,0.30117 0.5637,0.41312 0.71428,0.71429 0.10648,0.21296 -0.16835,0.54592 0,0.71428 0.16836,0.16836 0.50133,-0.10648 0.71429,0 0.30117,0.15059 0.47619,0.47619 0.71429,0.71429 0.4201,0.4201 2.52637,2.69176 2.85714,2.85714 0.21296,0.10648 0.54593,-0.16836 0.71428,0 0.16836,0.16836 -0.10647,0.50133 0,0.71429 1.48635,2.97268 -0.0493,-0.7636 1.42858,0.71428 0.33671,0.33672 -0.33672,1.09186 0,1.42857 0.37646,0.37647 1.05211,0.33783 1.42857,0.71429 0.16836,0.16836 -0.16836,0.54593 0,0.71429 0.37646,0.37646 0.98559,0.41896 1.42857,0.71428 0.28016,0.18678 0.41312,0.5637 0.71428,0.71429 0.21296,0.10648 0.54593,-0.16836 0.71429,0 0.47643,0.47642 -0.47643,0.95214 0,1.42857 0.16836,0.16836 0.54593,-0.16836 0.71429,0 0.16835,0.16836 -0.16836,0.54593 0,0.71428 0.16835,0.16836 0.54592,-0.16835 0.71428,0 0.16836,0.16836 -0.10648,0.50133 0,0.71429 0.15059,0.30117 0.5637,0.41312 0.71429,0.71429 0.10648,0.21296 -0.16836,0.54592 0,0.71428 0.16836,0.16836 0.54592,-0.16836 0.71428,0 0.33672,0.33672 -0.33671,1.09186 0,1.42857 0.16836,0.16836 0.54593,-0.16836 0.71429,0 0.16836,0.16836 -0.16836,0.54593 0,0.71429 0.16836,0.16836 0.54593,-0.16836 0.71428,0 0.16836,0.16836 -0.10647,0.50133 0,0.71428 0.15059,0.30117 0.56371,0.41312 0.71429,0.71429 0.21296,0.42592 -0.33672,1.09185 0,1.42857 0.16836,0.16836 0.54593,-0.16836 0.71429,0 0.33671,0.33672 -0.33672,1.09186 0,1.42857 0.16835,0.16836 0.54592,-0.16836 0.71428,0 0.16836,0.16836 -0.16836,0.54593 0,0.71429 0.16836,0.16836 0.54593,-0.16836 0.71429,0 0.16836,0.16836 -0.16836,0.54593 0,0.71428 0.33671,0.33672 1.09185,-0.33671 1.42857,0 0.33672,0.33672 -0.33672,1.09186 0,1.42858 0.33672,0.33671 1.00265,-0.21296 1.42857,0 2.36899,2.36898 -0.67343,-0.33672 1.42857,0.71428 0.30117,0.15059 0.41312,0.5637 0.71429,0.71429 0.21296,0.10648 0.54592,-0.16836 0.71428,0 0.16836,0.16836 -0.10648,0.50132 0,0.71428 1.48635,2.97269 -0.0493,-0.76359 1.42857,0.71429 0.16836,0.16836 -0.16835,0.54593 0,0.71428 0.33672,0.33672 1.09186,-0.33671 1.42858,0 0.16835,0.16836 -0.16836,0.54593 0,0.71429 0.33671,0.33672 1.09185,-0.33672 1.42857,0 0.16836,0.16836 -0.16836,0.54593 0,0.71429 0.16836,0.16835 0.50132,-0.10648 0.71428,0 0.30117,0.15058 0.41312,0.5637 0.71429,0.71428 0.21296,0.10648 0.54593,-0.16836 0.71428,0 0.2381,0.47619 0.4762,0.95238 0.71429,1.42857 0.2381,0 0.54593,-0.16836 0.71429,0 0.16835,0.16836 -0.16836,0.54593 0,0.71429 0.35714,0.35714 1.78571,-0.35714 2.14285,0 0.16836,0.16836 -0.10648,0.50133 0,0.71428 1.48635,2.97269 -0.0493,-0.76359 1.42857,0.71429 0.16836,0.16836 -0.16835,0.54593 0,0.71429 0.33672,0.33671 1.00266,-0.21296 1.42858,0 0.30117,0.15058 0.41311,0.5637 0.71428,0.71428 0.21296,0.10648 0.54593,-0.16836 0.71429,0 0.16836,0.16836 -0.10648,0.50133 0,0.71429 0.15058,0.30117 0.47619,0.47619 0.71428,0.71428 0.2381,0.2381 0.41312,0.5637 0.71429,0.71429 0.21296,0.10648 0.54593,-0.16836 0.71428,0 0.16836,0.16836 -0.16835,0.54593 0,0.71428 0.16836,0.16836 0.48841,-0.0753 0.71429,0 5.17387,1.72463 -1.12615,-0.20593 2.14286,1.42858 0.42592,0.21296 1.09185,-0.33672 1.42857,0 0.16836,0.16835 -0.16836,0.54592 0,0.71428 0.33672,0.33672 1.09185,-0.33672 1.42857,0 0.16836,0.16836 -0.16836,0.54593 0,0.71429 0.33672,0.33672 1.09185,-0.33672 1.42857,0 0.16836,0.16836 -0.10648,0.50132 0,0.71428 1.48634,2.97269 -0.0493,-0.76359 1.42857,0.71429 0.16836,0.16836 -0.16836,0.54593 0,0.71428 0.33672,0.33672 1.09186,-0.33671 1.42857,0 0.16836,0.16836 -0.16835,0.54593 0,0.71429 0.33672,0.33672 1.09186,-0.33672 1.42858,0 0.16835,0.16836 -0.16836,0.54593 0,0.71429 0.33671,0.33671 0.97681,-0.15059 1.42857,0 0.50507,0.16835 0.92349,0.54592 1.42857,0.71428 0.22588,0.0753 0.50133,-0.10648 0.71428,0 0.30117,0.15059 0.41312,0.5637 0.71429,0.71429 0.21296,0.10648 0.50133,-0.10648 0.71429,0 0.30117,0.15058 0.41311,0.5637 0.71428,0.71428 0.21296,0.10648 0.54593,-0.16836 0.71429,0 0.16836,0.16836 -0.16836,0.54593 0,0.71429 0.16836,0.16836 0.50132,-0.10648 0.71428,0 0.30117,0.15058 0.41312,0.5637 0.71429,0.71428 0.21296,0.10648 0.54593,-0.16835 0.71428,0 0.16836,0.16836 -0.16835,0.54593 0,0.71429 0.33672,0.33672 1.09186,-0.33672 1.42858,0 0.16835,0.16836 -0.16836,0.54593 0,0.71429 0.16835,0.16835 0.54592,-0.16836 0.71428,0 0.16836,0.16835 -0.16836,0.54592 0,0.71428 0.47761,0.47761 0.95096,-0.47761 1.42857,0 0.33672,0.33672 -0.33671,1.09186 0,1.42857 0.47762,0.47762 0.95096,-0.47761 1.42857,0 0.16836,0.16836 -0.16835,0.54593 0,0.71429 0.16836,0.16836 0.54593,-0.16836 0.71429,0 0.16836,0.16836 -0.16836,0.54593 0,0.71428 0.16836,0.16836 0.54593,-0.16835 0.71429,0 0.16835,0.16836 -0.16836,0.54593 0,0.71429 0.16835,0.16836 0.54592,-0.16836 0.71428,0 1.47788,1.47788 -2.2584,-0.0578 0.71429,1.42857 0.21296,0.10648 0.50132,-0.10648 0.71428,0 0.30117,0.15059 0.41312,0.5637 0.71429,0.71429 0.21296,0.10648 0.54593,-0.16836 0.71428,0 0.33672,0.33672 -0.33671,1.09185 0,1.42857 0.47762,0.47761 0.95096,-0.47761 1.42858,0 0.16835,0.16836 -0.16836,0.54593 0,0.71428 0.16835,0.16836 0.54592,-0.16835 0.71428,0 0.16836,0.16836 -0.10648,0.50133 0,0.71429 2.36899,2.36899 -0.33672,-0.67343 0.71429,1.42857 0.15058,0.30117 0.5637,0.41312 0.71428,0.71429 0.21296,0.42592 -0.33671,1.09185 0,1.42857 0.16836,0.16836 0.54593,-0.16836 0.71429,0 0.16836,0.16836 -0.10648,0.50133 0,0.71428 0.15058,0.30117 0.5637,0.41312 0.71428,0.71429 0.21296,0.42592 -0.15058,0.97682 0,1.42857 0.16836,0.50508 0.54593,0.9235 0.71429,1.42857 0.0753,0.22588 -0.16836,0.54593 0,0.71429 0.16836,0.16836 0.54593,-0.16836 0.71429,0 0.35714,0.35714 -0.35715,1.78571 0,2.14286 0.16835,0.16836 0.54592,-0.16836 0.71428,0 0.33672,0.33671 -0.21296,1.00265 0,1.42857 1.62582,1.62581 0.18879,-0.14794 0.71429,1.42857 0.16836,0.50508 0.54592,0.92349 0.71428,1.42857 0.0753,0.22588 -0.10648,0.50133 0,0.71429 0.15059,0.30117 0.5637,0.41311 0.71429,0.71428 0.10648,0.21296 -0.0753,0.48841 0,0.71429 0.16836,0.50507 0.54593,0.92349 0.71428,1.42857 0.0753,0.22588 -0.16835,0.54593 0,0.71428 0.16836,0.16836 0.60781,-0.21295 0.71429,0 0.21296,0.42592 -0.21296,1.00266 0,1.42858 0.10648,0.21296 0.54593,-0.16836 0.71429,0 0.33671,0.33671 -0.21296,1.00265 0,1.42857 0.15058,0.30117 0.5637,0.41311 0.71428,0.71428 0.10648,0.21296 -0.16836,0.54593 0,0.71429 0.16836,0.16836 0.54593,-0.16836 0.71429,0 0.16836,0.16836 -0.16836,0.54593 0,0.71428 0.16836,0.16836 0.54592,-0.16835 0.71428,0 0.19545,0.19545 -0.19374,2.46966 0,2.85715 0.15059,0.30117 0.5637,0.41311 0.71429,0.71428 0.1416,0.28321 -0.14603,1.99683 0,2.14286 0.16836,0.16836 0.54593,-0.16836 0.71428,0 0.35715,0.35714 -0.35714,1.78571 0,2.14286 0.16836,0.16836 0.54593,-0.16836 0.71429,0 0.35714,0.35714 -0.35714,1.78571 0,2.14285 0.16836,0.16836 0.54593,-0.16835 0.71429,0 0.25072,0.25073 -0.24669,3.07805 0,3.57143 0.15058,0.30117 0.5637,0.41312 0.71428,0.71429 0.19375,0.38749 -0.19544,2.6617 0,2.85714 0.16836,0.16836 0.54593,-0.16836 0.71429,0 0.16836,0.16836 0,0.47619 0,0.71429 0,0.49681 -0.12916,3.31312 0,3.57143 0.15058,0.30117 0.5637,0.41311 0.71428,0.71428 0.10648,0.21296 0,0.47619 0,0.71429 0,0.23809 0,0.47619 0,0.71428 0,1.42857 0,2.85715 0,4.28572 0,0.23809 0,0.47619 0,0.71428 0,0.2381 -0.16836,0.54593 0,0.71429 0.16836,0.16836 0.54593,-0.16836 0.71429,0 0.16836,0.16836 0,0.47619 0,0.71428 0,1.19048 0,2.38096 0,3.57143 0,0.2381 -0.16836,0.54593 0,0.71429 0.16836,0.16836 0.54593,-0.16836 0.71428,0 0.25073,0.25073 -0.24669,3.07805 0,3.57143 0.15059,0.30117 0.56371,0.41311 0.71429,0.71428 0.22531,0.45062 -0.22531,3.12081 0,3.57143 0.15058,0.30117 0.5637,0.41312 0.71429,0.71429 0.12915,0.25831 0,3.07461 0,3.57143 0,4.04762 0,8.09523 0,12.14285 0,0.78246 0.0721,2.82109 0,2.85715 -0.42592,0.21296 -1.00266,-0.21296 -1.42858,0 -0.21295,0.10648 0,0.47619 0,0.71428 0,0.2381 0,0.47619 0,0.71429 0,1.67512 0.16836,-0.33672 -0.71428,1.42857 -0.19375,0.38749 0.19544,2.6617 0,2.85714 -0.16836,0.16836 -0.54593,-0.16836 -0.71429,0 -0.33671,0.33672 0.21296,1.00266 0,1.42857 -0.15058,0.30117 -0.5637,0.41312 -0.71428,0.71429 -0.21296,0.42592 0.21296,1.00265 0,1.42857 -0.15059,0.30117 -0.5637,0.41312 -0.71429,0.71429 -0.10648,0.21296 0.16836,0.54592 0,0.71428 -0.16836,0.16836 -0.54593,-0.16836 -0.71428,0 -0.16836,0.16836 0.10648,0.50133 0,0.71429 -0.15059,0.30117 -0.56371,0.41311 -0.71429,0.71428 -0.21296,0.42592 0.21296,1.00266 0,1.42857 -0.12715,0.25431 -1.30142,1.17427 -1.42857,1.42858 -0.10648,0.21296 0.16836,0.54592 0,0.71428 -0.16836,0.16836 -0.54593,-0.16836 -0.71429,0 -0.16836,0.16836 0.10648,0.50133 0,0.71429 -0.42857,0.85714 -1.71428,1.28571 -2.14285,2.14285 -0.10648,0.21296 0.16835,0.54593 0,0.71429 -0.16836,0.16836 -0.50133,-0.10648 -0.71429,0 -0.30117,0.15059 -0.41312,0.5637 -0.71429,0.71429 -0.21295,0.10648 -0.54592,-0.16836 -0.71428,0 -1.47788,1.47788 2.2584,-0.0578 -0.71429,1.42857 -0.21296,0.10648 -0.50132,-0.10648 -0.71428,0 -0.60234,0.30117 -0.82624,1.1274 -1.42857,1.42857 -0.42592,0.21296 -1.09186,-0.33672 -1.42858,0 -0.16835,0.16836 0.16836,0.54593 0,0.71428 -0.33671,0.33672 -1.00265,-0.21295 -1.42857,0 -0.30117,0.15059 -0.41311,0.56371 -0.71428,0.71429 -0.21296,0.10648 -0.48841,-0.0753 -0.71429,0 -0.50507,0.16836 -0.92349,0.54593 -1.42857,0.71429 -0.22588,0.0753 -0.50133,-0.10648 -0.71429,0 -2.17825,1.08913 1.30639,0.56626 -2.14285,1.42857 -0.46198,0.11549 -0.97682,-0.15059 -1.42857,0 -0.31944,0.10648 -0.41312,0.5637 -0.71429,0.71428 -0.21296,0.10648 -0.48841,-0.0753 -0.71429,0 -1.01015,0.33672 -1.82414,1.17032 -2.85714,1.42857 -0.46197,0.1155 -0.9666,-0.11549 -1.42857,0 -0.5165,0.12913 -0.91207,0.58517 -1.42857,0.71429 -0.46197,0.11549 -0.95238,0 -1.42857,0 -1.19048,0 -2.38095,0 -3.57143,0 -0.95238,0 -1.90476,0 -2.85714,0 -0.47619,0 -0.96163,-0.0934 -1.42858,0 -0.7383,0.14766 -1.40455,0.56663 -2.14285,0.71429 -0.46695,0.0934 -0.95238,0 -1.42857,0 -0.95238,0 -1.90477,0 -2.85715,0 -3.09523,0 -6.19047,0 -9.28571,0 -1.19048,0 -2.38095,0 -3.57143,0 -0.47619,0 -1.03236,0.26414 -1.42857,0 -0.44298,-0.29532 -0.27131,-1.13325 -0.71429,-1.42858 -0.16543,-0.11029 -2.45475,0.1006 -2.85714,0 -0.5165,-0.12912 -0.95238,-0.47619 -1.42857,-0.71428 -0.47619,-0.2381 -0.98559,-0.41897 -1.42857,-0.71429 -0.28017,-0.18677 -0.41312,-0.5637 -0.71429,-0.71428 -1.75925,-0.87963 0.64481,2.07338 -2.14286,-0.71429 -0.37646,-0.37646 -0.28836,-1.10913 -0.71428,-1.42857 -0.60234,-0.45175 -1.41242,-0.53167 -2.14286,-0.71429 -0.23098,-0.0577 -0.54593,0.16836 -0.71428,0 -0.37647,-0.37646 -0.33783,-1.0521 -0.71429,-1.42857 -0.37646,-0.37646 -1.05211,-0.33782 -1.42857,-0.71428 -0.16836,-0.16836 0.13207,-0.51618 0,-0.71429 -0.35218,-0.52827 -2.56335,-2.26955 -2.85714,-2.85714 -1.16159,-2.32318 -0.18033,-1.69906 -1.42858,-3.57143 -0.66035,-0.99054 -1.61046,-1.79235 -2.14285,-2.85714 -0.43903,-0.87805 -0.32758,-1.95483 -0.71429,-2.85715 -0.33816,-0.78905 -1.04465,-1.37502 -1.42857,-2.14285 -0.33672,-0.67344 -0.32691,-1.49723 -0.71429,-2.14286 -3.98623,-6.64373 1.43157,5.006 -2.85714,-3.57143 -0.33672,-0.67343 -0.43466,-1.44378 -0.71428,-2.14286 -0.65311,-1.63275 -1.13667,-1.89444 -2.14286,-3.57142 -1.87237,-3.12062 0.61566,0.51704 -1.42857,-3.57143 -0.38392,-0.76784 -0.9869,-1.40673 -1.42857,-2.14286 -0.27392,-0.45653 -0.47619,-0.95238 -0.71429,-1.42857 -0.2381,-0.47619 -0.47619,-0.95238 -0.71429,-1.42857 -0.23809,-0.71429 -0.37756,-1.46942 -0.71428,-2.14286 -0.76784,-1.53567 -2.08931,-2.75005 -2.85714,-4.28571 -0.33672,-0.67344 -0.37757,-1.46943 -0.71429,-2.14286 -0.91597,-1.83194 -2.65546,-3.16806 -3.57143,-5 -0.21296,-0.42592 0.21296,-1.00265 0,-1.42857 -0.30117,-0.60234 -1.08209,-0.85111 -1.42857,-1.42857 -0.38738,-0.64563 -0.29664,-1.51639 -0.71429,-2.14286 -0.56033,-0.8405 -1.6911,-1.23935 -2.14285,-2.14286 -0.31944,-0.63887 0.17324,-1.4499 0,-2.14286 -0.0817,-0.32666 -0.52751,-0.43411 -0.71429,-0.71428 -0.29532,-0.44298 -0.28837,-1.10913 -0.71428,-1.42857 -0.60234,-0.45176 -1.46943,-0.37757 -2.14286,-0.71429 -0.30117,-0.15058 -0.47619,-0.47619 -0.71429,-0.71428 -0.23809,-0.2381 -0.47619,-0.47619 -0.71428,-0.71429 -0.95238,-0.95238 -1.90476,-1.90476 -2.85715,-2.85714 -0.23809,-0.2381 -0.51225,-0.44491 -0.71428,-0.71429 -0.51508,-0.68677 -0.82155,-1.53583 -1.42857,-2.14286 -0.60703,-0.60702 -1.4443,-0.92959 -2.14286,-1.42857 -0.96873,-0.69195 -1.82352,-1.55221 -2.85714,-2.14285 -0.65372,-0.37356 -1.46942,-0.37757 -2.14286,-0.71429 -0.30117,-0.15058 -0.44491,-0.51225 -0.71429,-0.71429 -0.68677,-0.51507 -1.53583,-0.82154 -2.14285,-1.42857 -0.37646,-0.37646 -0.33783,-1.05211 -0.71429,-1.42857 -0.37646,-0.37646 -1.00265,-0.39485 -1.42857,-0.71428 -0.53875,-0.40406 -0.88982,-1.02451 -1.42857,-1.42858 -0.85184,-0.63887 -2.10422,-0.67564 -2.85714,-1.42857 -3.65028,-3.65027 2.99498,0.99624 -2.14286,-2.85714 -0.42592,-0.31944 -1.05211,-0.33782 -1.42857,-0.71429 -1.75465,-0.25469 -0.29664,-1.51638 -0.71429,-2.14285 -0.74711,-1.12067 -2.04902,-1.77965 -2.85714,-2.85715 -0.31944,-0.42591 -0.47619,-0.95238 -0.71429,-1.42857 -0.47619,-0.71428 -0.89229,-1.47251 -1.42857,-2.14285 -4.37395,-4.37396 0.90351,1.20467 -2.14286,-2.85715 -0.40406,-0.53874 -1.02451,-0.88982 -1.42857,-1.42857 -0.31944,-0.42592 -0.39484,-1.00265 -0.71428,-1.42857 -0.40406,-0.53875 -1.02451,-0.88982 -1.42857,-1.42857 -0.71792,-0.95722 -1.01699,-2.54247 -1.42858,-3.57143 -0.19772,-0.49432 -0.51655,-0.93425 -0.71428,-1.42857 -0.27963,-0.69907 -0.37757,-1.46942 -0.71429,-2.14286 -0.38391,-0.76783 -1.04465,-1.37502 -1.42857,-2.14286 -0.33672,-0.67343 -0.37757,-1.46942 -0.71428,-2.14285 -0.81504,-1.63008 -1.6083,-1.96776 -2.14286,-3.57143 -0.90617,-2.71849 -0.39674,-2.59239 -1.42857,-5 -3.97733,-7.95465 0.77475,2.066 -2.14286,-5.71429 -2.21682,-5.91153 -0.92948,0.56781 -2.85714,-7.14285 -0.35126,-1.40504 -0.36303,-2.88068 -0.71429,-4.28572 -0.36522,-1.46088 -0.98572,-2.84646 -1.42857,-4.28571 -0.50976,-1.65671 -0.91881,-3.34329 -1.42857,-5 -0.8857,-2.87852 -2.06472,-5.66586 -2.85714,-8.57143 -0.31944,-1.17127 -0.2634,-2.44421 -0.71429,-3.57143 -0.71292,-1.78229 -2.14423,-3.21771 -2.85714,-5 -3.45366,-8.63414 2.63526,5.8369 -1.42857,-5 -0.37388,-0.997 -0.90029,-1.93264 -1.42858,-2.85714 -0.42591,-0.74536 -1.19273,-1.31743 -1.42857,-2.14286 -0.26164,-0.91574 0.18678,-1.92326 0,-2.85714 -0.066,-0.33018 -0.51225,-0.44491 -0.71428,-0.71429 -0.47619,-0.71428 -0.95238,-1.42857 -1.42857,-2.14286 -0.47619,-0.47619 -1.02451,-0.88982 -1.42858,-1.42857 -0.31943,-0.42591 -0.33782,-1.05211 -0.71428,-1.42857 -0.16836,-0.16836 -0.60781,0.21296 -0.71429,0 -0.71428,-1.42857 0.35715,-1.07143 0,-2.14286 -0.16836,-0.50507 -0.51656,-0.93425 -0.71428,-1.42857 -0.27963,-0.69907 -0.37757,-1.46942 -0.71429,-2.14285 -0.15058,-0.30117 -0.5637,-0.41312 -0.71428,-0.71429 -0.21296,-0.42592 0.15058,-0.97682 0,-1.42857 -0.33672,-1.01015 -1.17033,-1.82414 -1.42858,-2.85714 -0.11549,-0.46198 0.21296,-1.00266 0,-1.42858 -0.10648,-0.21295 -0.6078,0.21296 -0.71428,0 -0.71429,-1.42857 0.35714,-1.07142 0,-2.14285 -0.16836,-0.50508 -0.54593,-0.9235 -0.71429,-1.42857 -0.0753,-0.22588 0.10648,-0.50133 0,-0.71429 -0.15058,-0.30117 -0.5637,-0.41312 -0.71428,-0.71429 -0.10648,-0.21295 0.0753,-0.4884 0,-0.71428 -0.16836,-0.50508 -0.54593,-0.9235 -0.71429,-1.42857 -0.0753,-0.22588 0.0753,-0.48841 0,-0.71429 -1.72462,-5.17387 0.20593,1.12615 -1.42857,-2.14286 -0.10648,-0.21295 0.0753,-0.4884 0,-0.71428 -0.2102,-0.63061 -1.76605,-3.7205 -2.14286,-4.28572 -0.54945,-0.82417 -1.5934,-1.31868 -2.14285,-2.14285 -0.59065,-0.88596 -0.83793,-1.97118 -1.42858,-2.85715 -0.18677,-0.28016 -0.5637,-0.41311 -0.71428,-0.71428 -0.10648,-0.21296 0.10648,-0.50133 0,-0.71429 -0.15059,-0.30117 -0.47619,-0.47619 -0.71429,-0.71428 -0.56126,-0.56126 -3.34394,-3.11645 -3.57143,-3.57143 -0.10648,-0.21296 0.10648,-0.50133 0,-0.71429 -0.30116,-0.60234 -1.1274,-0.82623 -1.42857,-1.42857 -0.10648,-0.21296 0.16836,-0.54593 0,-0.71428 -0.16836,-0.16836 -0.48841,0.0753 -0.71428,0 -0.50508,-0.16836 -1.05211,-0.33783 -1.42857,-0.71429 -0.16836,-0.16836 0.16835,-0.54593 0,-0.71429 -0.16836,-0.16835 -0.50133,0.10648 -0.71429,0 -0.60234,-0.30116 -0.82623,-1.1274 -1.42857,-1.42857 -0.31784,-0.15892 -2.53044,0.1089 -2.85714,0 -0.63888,-0.21296 -0.826237,-1.1274 -1.428576,-1.42857 -0.448944,-0.22447 -2.408198,0.22447 -2.857142,0 -0.30117,-0.15058 -0.377569,-0.71428 -0.714286,-0.71428 -1.214052,0 -2.517336,1.31662 -3.571429,0.71428 C 85.505992,293.56969 92.947203,293.79075 90,293.79075"
         id="path3032"
         inkscape:connector-curvature="0"
         clip-path="none" />
    </clipPath>
    <radialGradient
       inkscape:collect="always"
       xlink:href="#linearGradient4071"
       id="radialGradient4077"
       cx="913.88428"
       cy="353.99133"
       fx="913.88428"
       fy="353.99133"
       r="194.28572"
       gradientUnits="userSpaceOnUse"
       gradientTransform="matrix(0.81224087,0,-1.4860227e-8,0.81646326,149.13441,89.055557)" />
    <radialGradient
       inkscape:collect="always"
       xlink:href="#linearGradient4071"
       id="radialGradient4161"
       gradientUnits="userSpaceOnUse"
       gradientTransform="matrix(0.81224087,0,-1.4860227e-8,0.81646326,-882.29417,-102.37302)"
       cx="913.88428"
       cy="353.99133"
       fx="913.88428"
       fy="353.99133"
       r="194.28572" />
    <radialGradient
       inkscape:collect="always"
       xlink:href="#linearGradient4071"
       id="radialGradient4164"
       gradientUnits="userSpaceOnUse"
       gradientTransform="matrix(0.81224087,0,-1.4860227e-8,0.81646326,-882.29417,-102.37302)"
       cx="913.88428"
       cy="353.99133"
       fx="913.88428"
       fy="353.99133"
       r="194.28572" />
    <radialGradient
       inkscape:collect="always"
       xlink:href="#linearGradient4071"
       id="radialGradient4167"
       gradientUnits="userSpaceOnUse"
       gradientTransform="matrix(0.81224087,0,-1.4860227e-8,0.81646326,-882.29417,-102.37302)"
       cx="913.88428"
       cy="353.99133"
       fx="913.88428"
       fy="353.99133"
       r="194.28572" />
    <radialGradient
       inkscape:collect="always"
       xlink:href="#linearGradient4071"
       id="radialGradient4170"
       gradientUnits="userSpaceOnUse"
       gradientTransform="matrix(6.497927,0,-1.1888182e-7,-6.5317061,-9543.2071,5020.4092)"
       cx="913.88428"
       cy="353.99133"
       fx="913.88428"
       fy="353.99133"
       r="194.28572" />
    <radialGradient
       inkscape:collect="always"
       xlink:href="#linearGradient4071"
       id="radialGradient4176"
       gradientUnits="userSpaceOnUse"
       gradientTransform="matrix(6.497927,0,-1.1888182e-7,-6.5317061,-6560.35,894.69491)"
       cx="913.88428"
       cy="353.99133"
       fx="913.88428"
       fy="353.99133"
       r="194.28572" />
    <radialGradient
       inkscape:collect="always"
       xlink:href="#linearGradient4071"
       id="radialGradient4178"
       gradientUnits="userSpaceOnUse"
       gradientTransform="matrix(6.4671065,0.63212998,0.63541596,-6.5007254,-9491.3654,3360.0333)"
       cx="913.88428"
       cy="353.99133"
       fx="913.88428"
       fy="353.99133"
       r="194.28572" />
    <radialGradient
       inkscape:collect="always"
       xlink:href="#linearGradient4360-1"
       id="radialGradient4368-0"
       cx="227.7894"
       cy="547.79102"
       fx="227.7894"
       fy="547.79102"
       r="65.654839"
       gradientUnits="userSpaceOnUse"
       gradientTransform="matrix(8,0,0,-8,-1132.6971,3685.7528)" />
    <linearGradient
       inkscape:collect="always"
       id="linearGradient4360-1">
      <stop
         style="stop-color:#ffffff;stop-opacity:0.502"
         offset="0"
         id="stop4362-7" />
      <stop
         style="stop-color:#ffffff;stop-opacity:0;"
         offset="1"
         id="stop4364-6" />
    </linearGradient>
    <radialGradient
       inkscape:collect="always"
       xlink:href="#linearGradient4360-6"
       id="radialGradient4368-3"
       cx="227.7894"
       cy="547.79102"
       fx="227.7894"
       fy="547.79102"
       r="65.654839"
       gradientUnits="userSpaceOnUse"
       gradientTransform="matrix(8,0,0,-8,-1205.4281,3726.1589)" />
    <linearGradient
       inkscape:collect="always"
       id="linearGradient4360-6">
      <stop
         style="stop-color:#ffffff;stop-opacity:0.502"
         offset="0"
         id="stop4362-1" />
      <stop
         style="stop-color:#ffffff;stop-opacity:0;"
         offset="1"
         id="stop4364-2" />
    </linearGradient>
    <radialGradient
       r="65.654839"
       fy="547.79102"
       fx="227.7894"
       cy="547.79102"
       cx="227.7894"
       gradientTransform="matrix(0,8,8,0,-1910.8007,-2393.6314)"
       gradientUnits="userSpaceOnUse"
       id="radialGradient4453-8"
       xlink:href="#linearGradient4360-1-1"
       inkscape:collect="always" />
    <linearGradient
       inkscape:collect="always"
       id="linearGradient4360-1-1">
      <stop
         style="stop-color:#ffffff;stop-opacity:0.502"
         offset="0"
         id="stop4362-7-4" />
      <stop
         style="stop-color:#ffffff;stop-opacity:0;"
         offset="1"
         id="stop4364-6-3" />
    </linearGradient>
    <radialGradient
       r="65.654839"
       fy="547.79102"
       fx="227.7894"
       cy="547.79102"
       cx="227.7894"
       gradientTransform="matrix(0,8,8,0,-1846.1509,-2304.7379)"
       gradientUnits="userSpaceOnUse"
       id="radialGradient4453-4"
       xlink:href="#linearGradient4360-1-13"
       inkscape:collect="always" />
    <linearGradient
       inkscape:collect="always"
       id="linearGradient4360-1-13">
      <stop
         style="stop-color:#ffffff;stop-opacity:0.502"
         offset="0"
         id="stop4362-7-7" />
      <stop
         style="stop-color:#ffffff;stop-opacity:0;"
         offset="1"
         id="stop4364-6-2" />
    </linearGradient>
    <radialGradient
       r="65.654839"
       fy="547.79102"
       fx="227.7894"
       cy="547.79102"
       cx="227.7894"
       gradientTransform="matrix(0,8,8,0,-1757.2575,-2248.1694)"
       gradientUnits="userSpaceOnUse"
       id="radialGradient4453-1"
       xlink:href="#linearGradient4360-1-9"
       inkscape:collect="always" />
    <linearGradient
       inkscape:collect="always"
       id="linearGradient4360-1-9">
      <stop
         style="stop-color:#ffffff;stop-opacity:0.502"
         offset="0"
         id="stop4362-7-0" />
      <stop
         style="stop-color:#ffffff;stop-opacity:0;"
         offset="1"
         id="stop4364-6-6" />
    </linearGradient>
    <radialGradient
       r="65.654839"
       fy="547.79102"
       fx="227.7894"
       cy="547.79102"
       cx="227.7894"
       gradientTransform="matrix(8,0,0,-8,-1403.4178,3956.4738)"
       gradientUnits="userSpaceOnUse"
       id="radialGradient4643-3"
       xlink:href="#linearGradient4360-1-9-6"
       inkscape:collect="always" />
    <linearGradient
       inkscape:collect="always"
       id="linearGradient4360-1-9-6">
      <stop
         style="stop-color:#ffffff;stop-opacity:0.502"
         offset="0"
         id="stop4362-7-0-7" />
      <stop
         style="stop-color:#ffffff;stop-opacity:0;"
         offset="1"
         id="stop4364-6-6-9" />
    </linearGradient>
  </defs>
  <sodipodi:namedview
     id="base"
     pagecolor="#ffffff"
     bordercolor="#666666"
     borderopacity="1.0"
     inkscape:pageopacity="0.0"
     inkscape:pageshadow="2"
     inkscape:zoom="1.979899"
     inkscape:cx="93.116174"
     inkscape:cy="154.19404"
     inkscape:document-units="px"
     inkscape:current-layer="g3849"
     showgrid="false"
     inkscape:window-width="1855"
     inkscape:window-height="1056"
     inkscape:window-x="65"
     inkscape:window-y="24"
     inkscape:window-maximized="1"
     fit-margin-top="0"
     fit-margin-left="0"
     fit-margin-right="0"
     fit-margin-bottom="0" />
  <metadata
     id="metadata7">
    <rdf:RDF>
      <cc:Work
         rdf:about="">
        <dc:format>image/svg+xml</dc:format>
        <dc:type
           rdf:resource="http://purl.org/dc/dcmitype/StillImage" />
        <dc:title></dc:title>
      </cc:Work>
    </rdf:RDF>
  </metadata>
  <g
     inkscape:label="Layer 1"
     inkscape:groupmode="layer"
     id="layer1"
     transform="translate(-196.81109,-492.79528)">
    <g
       style="fill:#272727;stroke:none"
       transform="matrix(0.125,0,0,-0.125,157.74957,463.74956)"
       id="g3849">
      <rect
         style="fill:#009acd;fill-opacity:1"
         id="rect3969"
         width="2416.8833"
         height="2362.751"
         x="312.49216"
         y="235.81955"
         transform="scale(1,-1)"
         ry="513.64172" />
      <path
         inkscape:connector-curvature="0"
         d="m 525.48631,-1414.4841 c -21.68652,-27.601 -27.60103,-52.2448 -40.41579,-165.6062 -8.87176,-71.9598 -17.74352,-139.9766 -20.70078,-150.8199 -18.72927,-61.1166 -9.85751,-82.8031 133.0764,-303.6113 67.03108,-102.5182 78.8601,-115.3329 133.07641,-145.8912 101.53236,-55.2021 245.45203,-152.7914 284.88205,-193.2072 57.1735,-57.1736 78.8601,-106.4612 77.8743,-174.478 l -0.9857,-56.1878 174.4779,1.9715 174.478,2.9573 2.9572,49.2875 c 4.9288,82.8031 -14.7862,262.2098 -37.4585,340.0842 -17.7435,62.1023 -28.5868,80.8315 -66.0453,116.3186 -51.2591,48.3018 -98.5752,73.9313 -188.2785,101.5324 -117.3044,37.4585 -145.8912,53.2305 -179.40667,104.4896 -95.61786,140.9624 -217.851,212.9222 -248.40929,145.8911 -8.87176,-20.7007 -5.91451,-32.5297 29.57253,-90.6891 22.67228,-36.4728 45.34456,-79.8458 51.25906,-94.6321 4.92876,-15.772 24.64378,-47.316 43.37305,-69.0026 17.74352,-22.6722 44.3588,-61.1165 59.14507,-85.7603 24.64378,-40.4158 20.70077,-38.4443 -46.3303,31.544 -40.4158,41.4016 -78.86009,89.7034 -85.76035,108.4327 -6.90026,17.7435 -26.61528,64.0738 -45.34455,103.5038 -28.58679,59.1451 -31.54404,74.9171 -23.65803,97.5894 10.84326,27.601 -4.92876,64.0738 -37.45854,88.7176 -9.85751,6.9002 -15.77202,33.5155 -16.75777,76.8886 -1.9715,39.43 -9.85751,75.9028 -18.72927,89.7033 -8.87176,12.8148 -15.77202,30.5583 -15.77202,37.4586 0,19.715 -38.4443,66.0453 -54.21631,66.0453 -7.88601,0 -24.64378,-14.7863 -38.4443,-32.5298 z"
         id="node8"
         class="node"
         style="fill:#ffffff;fill-opacity:1" />
      <path
         inkscape:connector-curvature="0"
         d="m 2442.7722,-1407.5838 c -11.829,-14.7863 -20.7008,-32.5298 -20.7008,-40.4158 0,-6.9003 -6.9002,-23.6581 -14.7862,-36.4728 -8.8718,-12.8148 -17.7435,-53.2306 -21.6865,-90.6891 -4.9288,-55.2021 -10.8433,-73.9314 -33.5156,-100.5466 -22.6723,-25.6296 -26.6153,-35.4871 -18.7293,-55.2021 10.8433,-28.5868 1.9715,-61.1166 -33.5155,-131.1049 -13.8005,-28.5868 -25.6295,-56.1878 -25.6295,-62.1023 0,-16.7578 -52.2448,-86.7461 -114.3472,-152.7914 l -55.202,-59.1451 26.6153,49.2875 c 14.7862,27.6011 39.43,63.0881 54.2163,78.8601 14.7862,16.7578 43.373,63.0881 63.088,103.5039 19.7151,40.4158 46.3303,90.6891 58.1594,110.4041 16.7577,29.5726 19.715,41.4016 10.8432,54.2163 -37.4585,60.1309 -162.6489,-13.8005 -243.4805,-141.9481 -32.5298,-50.2733 -54.2163,-64.0738 -173.4922,-105.4754 -119.2759,-41.4015 -131.1049,-47.316 -186.307,-91.6748 -51.259,-41.4016 -63.088,-64.0739 -89.7033,-169.5492 -15.772,-65.0596 -20.7008,-113.3614 -20.7008,-219.8225 l 0,-136.0337 172.5065,0 172.5064,0 0,59.1451 c 0,35.487 6.9003,72.9456 15.772,91.6748 36.4728,72.9456 130.1192,146.8769 338.1127,268.1243 52.2448,29.5726 85.7603,57.1736 93.6463,72.9456 5.9145,13.8005 45.3446,77.8744 87.7319,140.9624 93.6463,140.9624 107.4468,171.5207 95.6178,215.8795 -3.943,18.7293 -12.8147,84.7746 -19.715,146.8769 -12.8148,130.1192 -23.658,173.4922 -52.2448,205.0363 -26.6153,28.5868 -40.4158,27.601 -65.0596,-3.943 z"
         id="node9"
         class="node"
         style="fill:#ffffff;fill-opacity:1" />
      <rect
         style="fill:#ffffff;fill-opacity:1"
         id="rect3923"
         width="1092.7755"
         height="901.25818"
         x="979.49841"
         y="961.22272"
         transform="scale(1,-1)"
         ry="236.58028" />
      <path
         sodipodi:type="star"
         style="fill:#ffffff;fill-opacity:1"
         id="path3925"
         sodipodi:sides="3"
         sodipodi:cx="210"
         sodipodi:cy="206.6479"
         sodipodi:r1="78.102493"
         sodipodi:r2="78.102493"
         sodipodi:arg1="0.87605805"
         sodipodi:arg2="1.9232556"
         inkscape:flatsided="true"
         inkscape:rounded="1"
         inkscape:randomized="0"
         d="M 260,266.6479 C 156.07695,353.25044 156.07695,353.25044 133.03848,219.94917 110,86.647909 110,86.647909 236.96152,133.34664 363.92304,180.04536 363.92304,180.04536 260,266.6479 z"
         transform="matrix(1.1732759,3.2758066,6.4777995,-0.59332262,-53.495605,-1482.5442)"
         inkscape:transform-center-x="15.554176"
         inkscape:transform-center-y="-3.0916854" />
      <g
         id="g3940"
         transform="matrix(2.3695147,0,0,-2.3695147,3355.8352,802.7638)">
        <g
           id="g3929"
           transform="matrix(0.12400106,0,0,-0.12400106,-957.49119,1082.4146)"
           style="fill:#009acd;fill-opacity:1;stroke:none">
          <path
             class="node"
             id="node9-8"
             d="m 1325,2676 c -223,-63 -379,-188 -456,-363 -26,-58 -59,-178 -59,-215 0,-35 -9,-58 -24,-58 -22,0 -96,-83 -107,-119 -7,-24 -9,-278 -7,-758 l 3,-721 31,-43 c 18,-24 51,-54 75,-66 l 42,-23 680,0 c 742,0 712,-2 773,58 62,63 59,19 62,795 2,479 -1,721 -8,748 -12,45 -59,103 -101,125 -18,9 -29,23 -29,36 0,50 -45,209 -78,271 -71,138 -214,257 -377,315 -60,21 -92,25 -220,28 -109,3 -164,0 -200,-10 z m 312,-112 c 233,-48 405,-223 438,-446 7,-44 6,-47 -16,-53 -13,-3 -271,-4 -574,-3 l -550,3 -3,33 c -4,39 29,143 66,210 14,26 55,75 90,109 138,135 343,190 549,147 z m -64,-1088 c 68,-25 123,-94 133,-169 7,-52 -25,-137 -63,-167 l -24,-19 15,-98 c 8,-54 21,-131 28,-172 l 12,-74 -28,-23 c -25,-22 -36,-24 -136,-24 -121,0 -157,11 -167,49 -3,14 5,95 20,181 l 26,155 -29,30 c -63,65 -76,149 -35,231 47,95 147,135 248,100 z"
             inkscape:connector-curvature="0"
             style="fill:#009acd;fill-opacity:1" />
        </g>
        <g
           id="g3932"
           transform="matrix(0.1,0,0,-0.1,0,300)"
           style="fill:#a7a7a7;stroke:none" />
      </g>
      <text
         xml:space="preserve"
         style="font-size:40px;font-style:normal;font-variant:normal;font-weight:normal;font-stretch:normal;line-height:125%;letter-spacing:0px;word-spacing:0px;fill:#000000;fill-opacity:1;stroke:none;font-family:CHICASyMUJERES;-inkscape-font-specification:CHICASyMUJERES"
         x="-174.28571"
         y="578.07648"
         id="text4302"
         sodipodi:linespacing="125%"
         transform="matrix(8,0,0,-8,-1261.9966,3709.9965)"><tspan
           sodipodi:role="line"
           id="tspan4304"
           x="-174.28571"
           y="578.07648"></tspan></text>
      <text
         xml:space="preserve"
         style="font-size:40px;font-style:normal;font-variant:normal;font-weight:normal;font-stretch:normal;line-height:125%;letter-spacing:0px;word-spacing:0px;fill:#000000;fill-opacity:1;stroke:none;font-family:CHICASyMUJERES;-inkscape-font-specification:CHICASyMUJERES"
         x="-258.57144"
         y="680.93359"
         id="text4308"
         sodipodi:linespacing="125%"
         transform="matrix(8,0,0,-8,-1261.9966,3709.9965)"><tspan
           sodipodi:role="line"
           id="tspan4310"
           x="-258.57144"
           y="680.93359" /></text>
      <path
         sodipodi:type="arc"
         id="path4346"
         style="fill:#000000;stroke:none"
         sodipodi:cx="1008.8264"
         sodipodi:cy="-199.58002"
         sodipodi:rx="1.5"
         sodipodi:ry="1.5"
         d="m 1010.3264,-199.58002 a 1.5,1.5 0 1 1 -3,0 1.5,1.5 0 1 1 3,0 z"
         transform="matrix(0.98575113,0,0,0.98575113,4.1647896,-37.108131)" />
    </g>
  </g>
</svg>
